<svg width="256" height="44" viewBox="0 0 256 44" fill="none" xmlns="http://www.w3.org/2000/svg">
<rect width="256" height="44" rx="7.94135" fill="#808080"/>
<path d="M109.479 20.9313H107.317C107.278 20.6517 107.197 20.4033 107.076 20.1861C106.954 19.9657 106.798 19.7781 106.607 19.6235C106.416 19.4689 106.196 19.3504 105.945 19.2682C105.699 19.1859 105.431 19.1448 105.141 19.1448C104.618 19.1448 104.162 19.2748 103.774 19.5347C103.386 19.7913 103.085 20.1664 102.871 20.6599C102.657 21.1501 102.55 21.7456 102.55 22.4464C102.55 23.1669 102.657 23.7723 102.871 24.2625C103.088 24.7528 103.391 25.1229 103.779 25.373C104.167 25.623 104.616 25.748 105.126 25.748C105.412 25.748 105.677 25.7102 105.921 25.6345C106.168 25.5588 106.386 25.4486 106.577 25.3039C106.768 25.1558 106.926 24.9765 107.051 24.7659C107.179 24.5554 107.268 24.3152 107.317 24.0454L109.479 24.0553C109.423 24.5192 109.283 24.9666 109.06 25.3976C108.839 25.8253 108.541 26.2086 108.166 26.5475C107.794 26.8831 107.35 27.1496 106.834 27.347C106.321 27.5411 105.74 27.6382 105.092 27.6382C104.19 27.6382 103.384 27.4342 102.673 27.0262C101.966 26.6183 101.407 26.0277 100.996 25.2545C100.588 24.4813 100.384 23.5453 100.384 22.4464C100.384 21.3442 100.591 20.4066 101.005 19.6334C101.42 18.8602 101.983 18.2713 102.693 17.8666C103.404 17.4586 104.203 17.2546 105.092 17.2546C105.677 17.2546 106.22 17.3369 106.72 17.5014C107.224 17.6659 107.669 17.9061 108.058 18.2219C108.446 18.5345 108.762 18.9178 109.005 19.3718C109.252 19.8259 109.41 20.3457 109.479 20.9313ZM113.134 27.6431C112.65 27.6431 112.219 27.5592 111.84 27.3914C111.462 27.2203 111.163 26.9686 110.942 26.6364C110.725 26.3008 110.617 25.8829 110.617 25.3828C110.617 24.9617 110.694 24.608 110.849 24.3218C111.003 24.0355 111.214 23.8052 111.48 23.6308C111.747 23.4565 112.049 23.3249 112.388 23.236C112.73 23.1472 113.089 23.0847 113.464 23.0485C113.905 23.0024 114.26 22.9597 114.53 22.9202C114.8 22.8774 114.996 22.8149 115.117 22.7327C115.239 22.6504 115.3 22.5287 115.3 22.3675V22.3378C115.3 22.0253 115.201 21.7835 115.004 21.6124C114.81 21.4413 114.533 21.3557 114.175 21.3557C113.796 21.3557 113.495 21.4396 113.272 21.6074C113.048 21.7719 112.9 21.9792 112.828 22.2293L110.883 22.0713C110.982 21.6107 111.176 21.2126 111.465 20.877C111.755 20.5382 112.128 20.2782 112.586 20.0973C113.046 19.913 113.579 19.8209 114.185 19.8209C114.606 19.8209 115.009 19.8703 115.394 19.969C115.782 20.0677 116.126 20.2207 116.425 20.4279C116.728 20.6352 116.966 20.9017 117.141 21.2274C117.315 21.5499 117.402 21.9364 117.402 22.3872V27.5H115.409V26.4488H115.349C115.228 26.6857 115.065 26.8946 114.861 27.0756C114.657 27.2532 114.412 27.3931 114.125 27.4951C113.839 27.5938 113.509 27.6431 113.134 27.6431ZM113.736 26.1922C114.045 26.1922 114.318 26.1313 114.555 26.0096C114.792 25.8846 114.978 25.7168 115.112 25.5062C115.247 25.2956 115.315 25.0571 115.315 24.7906V23.9862C115.249 24.0289 115.159 24.0684 115.043 24.1046C114.932 24.1375 114.805 24.1688 114.663 24.1984C114.522 24.2247 114.38 24.2494 114.239 24.2724C114.097 24.2922 113.969 24.3103 113.854 24.3267C113.607 24.3629 113.392 24.4205 113.208 24.4994C113.023 24.5784 112.88 24.6853 112.778 24.8202C112.676 24.9518 112.625 25.1163 112.625 25.3137C112.625 25.6 112.729 25.8188 112.936 25.9701C113.147 26.1182 113.413 26.1922 113.736 26.1922ZM121.136 17.3928V27.5H119.033V17.3928H121.136ZM126.245 27.6481C125.468 27.6481 124.801 27.4835 124.241 27.1545C123.685 26.8222 123.258 26.3616 122.958 25.7727C122.662 25.1838 122.514 24.506 122.514 23.7394C122.514 22.963 122.664 22.2819 122.963 21.6963C123.266 21.1073 123.695 20.6484 124.251 20.3194C124.807 19.9871 125.468 19.8209 126.235 19.8209C126.896 19.8209 127.475 19.941 127.972 20.1812C128.469 20.4214 128.862 20.7586 129.152 21.1929C129.441 21.6272 129.601 22.1371 129.63 22.7228H127.647C127.591 22.3444 127.443 22.0401 127.202 21.8098C126.965 21.5762 126.655 21.4594 126.27 21.4594C125.944 21.4594 125.659 21.5482 125.416 21.7259C125.176 21.9003 124.988 22.1552 124.853 22.4908C124.718 22.8264 124.651 23.2327 124.651 23.7098C124.651 24.1935 124.717 24.6047 124.848 24.9436C124.983 25.2825 125.172 25.5407 125.416 25.7184C125.659 25.8961 125.944 25.9849 126.27 25.9849C126.51 25.9849 126.725 25.9356 126.916 25.8369C127.11 25.7382 127.27 25.595 127.395 25.4075C127.523 25.2167 127.607 24.988 127.647 24.7215H129.63C129.598 25.3006 129.44 25.8105 129.157 26.2514C128.877 26.689 128.49 27.0312 127.997 27.2779C127.503 27.5247 126.919 27.6481 126.245 27.6481ZM135.838 24.2724V19.9196H137.94V27.5H135.922V26.1231H135.843C135.671 26.5673 135.387 26.9242 134.989 27.194C134.594 27.4638 134.112 27.5987 133.543 27.5987C133.036 27.5987 132.59 27.4835 132.205 27.2532C131.82 27.0229 131.519 26.6956 131.302 26.2711C131.088 25.8467 130.98 25.3384 130.977 24.7462V19.9196H133.079V24.3711C133.082 24.8186 133.202 25.1723 133.439 25.4322C133.676 25.6921 133.994 25.8221 134.392 25.8221C134.645 25.8221 134.882 25.7645 135.102 25.6493C135.323 25.5309 135.5 25.3565 135.635 25.1262C135.773 24.8959 135.841 24.6113 135.838 24.2724ZM141.724 17.3928V27.5H139.622V17.3928H141.724ZM145.57 27.6431C145.086 27.6431 144.655 27.5592 144.277 27.3914C143.898 27.2203 143.599 26.9686 143.379 26.6364C143.161 26.3008 143.053 25.8829 143.053 25.3828C143.053 24.9617 143.13 24.608 143.285 24.3218C143.439 24.0355 143.65 23.8052 143.916 23.6308C144.183 23.4565 144.486 23.3249 144.825 23.236C145.167 23.1472 145.525 23.0847 145.9 23.0485C146.341 23.0024 146.697 22.9597 146.966 22.9202C147.236 22.8774 147.432 22.8149 147.554 22.7327C147.675 22.6504 147.736 22.5287 147.736 22.3675V22.3378C147.736 22.0253 147.638 21.7835 147.44 21.6124C147.246 21.4413 146.97 21.3557 146.611 21.3557C146.233 21.3557 145.932 21.4396 145.708 21.6074C145.484 21.7719 145.336 21.9792 145.264 22.2293L143.319 22.0713C143.418 21.6107 143.612 21.2126 143.902 20.877C144.191 20.5382 144.565 20.2782 145.022 20.0973C145.483 19.913 146.016 19.8209 146.621 19.8209C147.042 19.8209 147.445 19.8703 147.83 19.969C148.218 20.0677 148.562 20.2207 148.861 20.4279C149.164 20.6352 149.403 20.9017 149.577 21.2274C149.751 21.5499 149.839 21.9364 149.839 22.3872V27.5H147.845V26.4488H147.786C147.664 26.6857 147.501 26.8946 147.297 27.0756C147.093 27.2532 146.848 27.3931 146.562 27.4951C146.275 27.5938 145.945 27.6431 145.57 27.6431ZM146.172 26.1922C146.481 26.1922 146.754 26.1313 146.991 26.0096C147.228 25.8846 147.414 25.7168 147.549 25.5062C147.684 25.2956 147.751 25.0571 147.751 24.7906V23.9862C147.685 24.0289 147.595 24.0684 147.48 24.1046C147.368 24.1375 147.241 24.1688 147.1 24.1984C146.958 24.2247 146.817 24.2494 146.675 24.2724C146.534 24.2922 146.405 24.3103 146.29 24.3267C146.043 24.3629 145.828 24.4205 145.644 24.4994C145.46 24.5784 145.316 24.6853 145.214 24.8202C145.112 24.9518 145.061 25.1163 145.061 25.3137C145.061 25.6 145.165 25.8188 145.372 25.9701C145.583 26.1182 145.849 26.1922 146.172 26.1922ZM151.47 27.5V19.9196H153.508V21.2422H153.587C153.725 20.7718 153.957 20.4164 154.283 20.1762C154.608 19.9328 154.984 19.811 155.408 19.811C155.513 19.811 155.627 19.8176 155.748 19.8308C155.87 19.8439 155.977 19.862 156.069 19.8851V21.7506C155.971 21.7209 155.834 21.6946 155.66 21.6716C155.485 21.6486 155.326 21.6371 155.181 21.6371C154.872 21.6371 154.595 21.7045 154.352 21.8394C154.112 21.971 153.921 22.1552 153.779 22.3921C153.641 22.629 153.572 22.9021 153.572 23.2114V27.5H151.47Z" fill="white"/>
</svg>
